<?xml version="1.0" encoding="UTF-8"?>
<svg width="62px" height="62px" viewBox="0 0 62 62" version="1.1" xmlns="http://www.w3.org/2000/svg" xmlns:xlink="http://www.w3.org/1999/xlink">
    <!-- Generator: Sketch 52.5 (67469) - http://www.bohemiancoding.com/sketch -->
    <title>noun_Brain_1450086</title>
    <desc>Created with Sketch.</desc>
    <g id="Page-1" stroke="none" stroke-width="1" fill="none" fill-rule="evenodd">
        <g id="noun_Brain_1450086" fill="#000000">
            <g id="Group">
                <path d="M35.782,0.366 C34.331,0.138 32.861,0.56 31.747,1.515 C31.178,2.002 30.736,2.604 30.438,3.271 C28.98,1.292 26.641,0 24,0 C21.044,0 18.464,1.615 17.079,4.006 C17.053,4.005 17.026,4 17,4 C12.654,4 9.114,7.485 9.01,11.806 C7.623,12.608 6.589,13.947 6.188,15.538 C3.114,16.701 1,19.677 1,23 C1,24.235 1.289,25.452 1.842,26.559 C0.649,28.123 0,30.029 0,32 C0,34.305 0.892,36.511 2.461,38.175 C2.166,39.065 2,40.013 2,41 C2,45.444 5.26,49.216 9.622,49.887 C10.448,51.719 12.04,53.137 14.037,53.716 C14.403,58.344 18.279,62 23,62 C25.984,62 28.626,60.534 30.264,58.291 C30.549,59.132 31.056,59.892 31.747,60.484 C32.664,61.27 33.822,61.693 35.012,61.693 C35.268,61.693 35.526,61.673 35.783,61.633 C50.974,59.281 62,46.397 62,31 C62,15.603 50.974,2.719 35.782,0.366 Z M23,60 C19.141,60 16,56.859 16,53 C16,49.141 19.141,46 23,46 L23,44 C18.507,44 14.784,47.312 14.117,51.621 C12.264,50.872 11,49.077 11,47 C11,44.243 13.243,42 16,42 L16,40 C12.141,40 9,43.141 9,47 C9,47.242 9.015,47.48 9.039,47.716 C6.103,46.861 4,44.148 4,41 C4,37.141 7.141,34 11,34 L11,32 C7.804,32 4.999,33.679 3.402,36.197 C2.501,34.995 2,33.525 2,32 C2,30.282 2.637,28.626 3.792,27.336 L4.29,26.779 L3.897,26.143 C3.311,25.192 3,24.105 3,23 C3,20.821 4.215,18.841 6.058,17.792 C6.448,20.727 8.96,23 12,23 L12,21 C9.794,21 8,19.206 8,17 C8,14.794 9.794,13 12,13 C14.206,13 16,14.794 16,17 L18,17 C18,13.691 15.309,11 12,11 C11.686,11 11.38,11.032 11.078,11.078 C11.486,8.451 13.599,6.385 16.25,6.052 C16.093,6.677 16,7.327 16,8 C16,12.411 19.589,16 24,16 L24,14 C20.691,14 18,11.309 18,8 C18,4.691 20.691,2 24,2 C27.309,2 30,4.691 30,8 L30,53 C30,56.859 26.859,60 23,60 Z M35.476,59.657 C34.606,59.796 33.718,59.54 33.049,58.966 C32.382,58.395 32,57.564 32,56.688 L32,5.312 C32,4.435 32.382,3.605 33.049,3.034 C33.6,2.561 34.297,2.306 35.013,2.306 C35.167,2.306 35.322,2.318 35.476,2.342 C49.457,4.508 60,16.828 60,31 C60,45.172 49.457,57.492 35.476,59.657 Z" id="Shape" fill-rule="nonzero"></path>
                <path d="M41,24 L41,17 L39,17 L39,24 C39,24.552 38.552,25 38,25 L34,25 L34,27 L38,27 C39.654,27 41,25.654 41,24 Z" id="Path"></path>
                <path d="M40,15 C41.654,15 43,13.654 43,12 C43,10.346 41.654,9 40,9 C38.346,9 37,10.346 37,12 C37,13.654 38.346,15 40,15 Z M40,11 C40.552,11 41,11.448 41,12 C41,12.552 40.552,13 40,13 C39.448,13 39,12.552 39,12 C39,11.448 39.448,11 40,11 Z" id="Shape" fill-rule="nonzero"></path>
                <path d="M39,38 L39,45 L41,45 L41,38 C41,36.346 39.654,35 38,35 L34,35 L34,37 L38,37 C38.552,37 39,37.448 39,38 Z" id="Path"></path>
                <path d="M40,47 C38.346,47 37,48.346 37,50 C37,51.654 38.346,53 40,53 C41.654,53 43,51.654 43,50 C43,48.346 41.654,47 40,47 Z M40,51 C39.448,51 39,50.552 39,50 C39,49.448 39.448,49 40,49 C40.552,49 41,49.448 41,50 C41,50.552 40.552,51 40,51 Z" id="Shape" fill-rule="nonzero"></path>
                <path d="M47,27 C47,28.654 45.654,30 44,30 L34,30 L34,32 L44,32 C46.757,32 49,29.757 49,27 L49,24 L47,24 L47,27 Z" id="Path"></path>
                <path d="M48,16 C46.346,16 45,17.346 45,19 C45,20.654 46.346,22 48,22 C49.654,22 51,20.654 51,19 C51,17.346 49.654,16 48,16 Z M48,20 C47.448,20 47,19.552 47,19 C47,18.448 47.448,18 48,18 C48.552,18 49,18.448 49,19 C49,19.552 48.552,20 48,20 Z" id="Shape" fill-rule="nonzero"></path>
                <rect id="Rectangle" x="47" y="35" width="2" height="10"></rect>
                <rect id="Rectangle" x="52" y="21" width="2" height="16"></rect>
                <rect id="Rectangle" x="52" y="39" width="2" height="2"></rect>
                <rect id="Rectangle" x="24" y="7" width="2" height="2"></rect>
                <rect id="Rectangle" x="19" y="30" width="2" height="2"></rect>
                <rect id="Rectangle" x="25" y="52" width="2" height="2"></rect>
                <rect id="Rectangle" x="8" y="37" width="2" height="2"></rect>
                <rect id="Rectangle" x="26" y="23" width="2" height="2"></rect>
                <rect id="Rectangle" x="7" y="25" width="2" height="2"></rect>
            </g>
        </g>
    </g>
</svg>